<!-- Generator: Adobe Illustrator 19.0.0, SVG Export Plug-In  -->
<svg version="1.1"
	 xmlns="http://www.w3.org/2000/svg" xmlns:xlink="http://www.w3.org/1999/xlink" xmlns:a="http://ns.adobe.com/AdobeSVGViewerExtensions/3.0/"
	 x="0px" y="0px" width="36.9px" height="55.1px" viewBox="0 0 36.9 55.1" style="enable-background:new 0 0 36.9 55.1;"
	 xml:space="preserve">
<style type="text/css">
	.st0{fill:#FFFFFF;}
</style>
<defs>
</defs>
<g id="XMLID_24_">
	<path id="XMLID_25_" class="st0" d="M23,0.8c0.3,0.3,0.5,0.6,0.7,1.1l0.1,0.3l0.4-1.4c0.1-0.2,0.1-0.3,0.1-0.3
		c0-0.1,0.1-0.1,0.3-0.1L26.8,0c0.1,0,0.2,0,0.2,0.1c0,0,0,0.1,0,0.2c-0.1,0.2-0.1,0.3-0.1,0.4c0,0.1-0.1,0.2-0.1,0.4l-1.9,6.8
		c-0.4,1.5-0.8,2.8-1,3.8c-0.5,1.9-0.7,3.1-0.7,3.3c0,0.2,0,0.3,0.1,0.4c0.1,0.1,0.2,0.1,0.4,0.1c0.1,0,0.2,0,0.4-0.1
		c0.1-0.1,0.3-0.2,0.5-0.3l0.3-0.3c0.1-0.1,0.2-0.2,0.4-0.3c0.1-0.1,0.3-0.3,0.5-0.4l1.2-1.2l0.5,0.4c-1.4,1.7-2.4,2.8-3.3,3.4
		c-0.8,0.6-1.6,0.9-2.3,0.9c-0.5,0-0.9-0.2-1.1-0.5s-0.4-0.7-0.4-1.2c0-0.5,0.1-1.1,0.3-2s0.3-1.6,0.5-2.2c-0.2,0.4-0.6,0.9-1.1,1.7
		s-1.2,1.4-2,2.1c-0.9,0.8-1.8,1.4-2.7,1.7c-0.7,0.2-1.3,0.3-1.9,0.3c-1,0-2-0.4-2.8-1.3c-0.8-0.8-1.3-2-1.3-3.6
		c0-2.7,1.2-5.4,3.6-8.3C15.4,1.5,18,0,20.6,0C21.6,0,22.4,0.3,23,0.8z M22.4,1.5c-0.4-0.4-0.9-0.6-1.5-0.6c-2.1,0-4,1.6-5.8,4.8
		c-1.6,2.8-2.4,5.2-2.4,7.2c0,1,0.2,1.8,0.7,2.2c0.4,0.5,1,0.7,1.6,0.7c1.9,0,3.7-1.5,5.5-4.6C22.1,8.3,23,5.8,23,3.5
		C23,2.6,22.8,1.9,22.4,1.5z"/>
</g>
<g id="XMLID_16_">
	<g id="XMLID_20_">
		<path id="XMLID_21_" class="st0" d="M16.5,38.2c0.3,0.3,0.5,0.6,0.7,1.1l0.1,0.3l0.4-1.4c0.1-0.2,0.1-0.3,0.1-0.3
			c0-0.1,0.1-0.1,0.3-0.1l2.2-0.2c0.1,0,0.2,0,0.2,0.1c0,0,0,0.1,0,0.2c-0.1,0.2-0.1,0.3-0.1,0.4c0,0.1-0.1,0.2-0.1,0.4l-1.9,6.8
			c-0.4,1.5-0.8,2.8-1,3.8c-0.5,1.9-0.7,3.1-0.7,3.3c0,0.2,0,0.3,0.1,0.4C16.9,53,17,53,17.1,53c0.1,0,0.2,0,0.4-0.1
			c0.1-0.1,0.3-0.2,0.5-0.3l0.3-0.3c0.1-0.1,0.2-0.2,0.4-0.3c0.1-0.1,0.3-0.3,0.5-0.4l1.2-1.2l0.5,0.4c-1.4,1.7-2.4,2.8-3.3,3.4
			C16.8,54.7,16,55,15.3,55c-0.5,0-0.9-0.2-1.1-0.5s-0.4-0.7-0.4-1.2c0-0.5,0.1-1.1,0.3-2s0.3-1.6,0.5-2.2c-0.2,0.4-0.6,0.9-1.1,1.7
			s-1.2,1.4-2,2.1c-0.9,0.8-1.8,1.4-2.7,1.7c-0.7,0.2-1.3,0.3-1.9,0.3c-1,0-2-0.4-2.8-1.3c-0.8-0.8-1.3-2-1.3-3.6
			c0-2.7,1.2-5.4,3.6-8.3c2.5-3,5.1-4.5,7.7-4.5C15.2,37.4,15.9,37.7,16.5,38.2z M15.9,38.9c-0.4-0.4-0.9-0.6-1.5-0.6
			c-2.1,0-4,1.6-5.8,4.8c-1.6,2.8-2.4,5.2-2.4,7.2c0,1,0.2,1.8,0.7,2.2c0.4,0.5,1,0.7,1.6,0.7c1.9,0,3.7-1.5,5.5-4.6
			c1.7-2.8,2.6-5.3,2.6-7.6C16.5,40,16.3,39.3,15.9,38.9z"/>
	</g>
	<g id="XMLID_17_">
		<path id="XMLID_18_" class="st0" d="M23.1,53c0-0.1,0-0.3,0.1-0.4l3.7-13.3H24c0-0.3,0-0.6,0.1-0.6c0.1-0.1,0.2-0.2,0.4-0.3
			c1.3-0.5,2.3-1.1,3-1.6c0.7-0.5,1.7-1.5,2.9-2.9l0.3-0.4c0-0.1,0.1-0.1,0.1-0.1c0.1,0,0.1,0,0.2,0c0.1,0,0.2,0.1,0.3,0.1
			c0,0.1,0.1,0.2,0.1,0.2c0,0.1,0,0.1,0,0.2l-1.1,4.1h3.1l-0.2,1.3h-3.3l-3.5,12.8c-0.1,0.2,0,0.4,0.1,0.7s0.3,0.3,0.5,0.3
			c0.3,0,0.8-0.3,1.4-1c0.3-0.4,0.9-1.1,1.7-2.1l0.5,0.3l-0.3,0.4c-1.1,1.6-2.1,2.8-2.9,3.4c-0.8,0.6-1.6,1-2.4,1
			c-0.6,0-1.1-0.2-1.4-0.5c-0.3-0.3-0.4-0.7-0.4-1.2C23.1,53.3,23.1,53.2,23.1,53z"/>
	</g>
</g>
<rect id="XMLID_15_" y="24.8" class="st0" width="36.9" height="1.9"/>
</svg>
